<svg xmlns="http://www.w3.org/2000/svg" version="1.1" width="850" height="691.4" viewBox="0 0 850 691.4" style="font-family: Lato, &quot;Helvetica Neue&quot;, Helvetica, Arial, &quot;Liberation Sans&quot;, sans-serif; font-feature-settings: &quot;liga&quot;, &quot;kern&quot;, &quot;calt&quot;, &quot;lnum&quot;; text-rendering: geometricprecision; -webkit-font-smoothing: antialiased; font-size: 18px; background-color: rgb(255, 255, 255);"><defs><style>@import url(https://ourworldindata.org/fonts.css)</style></defs><defs><pattern id="noDataPattern" patternUnits="userSpaceOnUse" width="4" height="4" patternTransform="rotate(-45 2 2)"><path d="M -1,2 l 6,0" stroke="#ccc" stroke-width="0.7"></path></pattern></defs><g id="header" class="HeaderView"><g id="logo" transform="translate(769, 16) scale(1)"><svg classname="owidLogo" xmlns="http://www.w3.org/2000/svg" width="65" height="36" viewBox="0 0 65 36" fill="none"><path fill="#002147" d="M0 0h64.8v36H0z"></path><path fill="#CE261E" d="M0 33.3h64.8V36H0z"></path><path fill="#fff" d="M13.796 10.575c0 .636-.106 1.226-.318 1.77a4.193 4.193 0 0 1-.894 1.404 4.084 4.084 0 0 1-1.386.93c-.54.22-1.138.33-1.794.33-.656 0-1.256-.11-1.8-.33a4.149 4.149 0 0 1-1.392-.93 4.193 4.193 0 0 1-.894-1.404A4.833 4.833 0 0 1 5 10.575c0-.636.106-1.224.318-1.764a4.18 4.18 0 0 1 .894-1.41 4.076 4.076 0 0 1 1.392-.924 4.684 4.684 0 0 1 1.8-.336c.656 0 1.254.112 1.794.336.54.224 1.002.534 1.386.93.384.392.682.86.894 1.404.212.54.318 1.128.318 1.764Zm-1.656 0c0-.476-.064-.902-.192-1.278a2.671 2.671 0 0 0-.54-.966 2.332 2.332 0 0 0-.864-.606 2.94 2.94 0 0 0-1.14-.21c-.424 0-.806.07-1.146.21-.34.14-.63.342-.87.606a2.742 2.742 0 0 0-.546.966 3.955 3.955 0 0 0-.192 1.278c0 .476.064.904.192 1.284.128.376.31.696.546.96.24.26.53.46.87.6.34.14.722.21 1.146.21.424 0 .804-.07 1.14-.21.34-.14.628-.34.864-.6.236-.264.416-.584.54-.96a4.01 4.01 0 0 0 .192-1.284ZM16.104 8.757v3.912c0 .376.086.668.258.876.176.204.438.306.786.306.256 0 .496-.056.72-.168a2.58 2.58 0 0 0 .636-.474V8.757h1.482v6.156h-.906c-.192 0-.318-.09-.378-.27l-.102-.492a4.65 4.65 0 0 1-.396.354 2.577 2.577 0 0 1-.438.27 2.35 2.35 0 0 1-.498.168 2.345 2.345 0 0 1-.57.066c-.336 0-.634-.056-.894-.168a1.821 1.821 0 0 1-.648-.486 2.157 2.157 0 0 1-.402-.738 3.233 3.233 0 0 1-.132-.948V8.757h1.482ZM21.328 14.913V8.757h.87c.152 0 .258.028.318.084.06.056.1.152.12.288l.09.744c.22-.38.478-.68.774-.9.296-.22.628-.33.996-.33.304 0 .556.07.756.21l-.192 1.11c-.012.072-.038.124-.078.156a.278.278 0 0 1-.162.042 1.01 1.01 0 0 1-.246-.042 1.646 1.646 0 0 0-.414-.042c-.308 0-.572.086-.792.258-.22.168-.406.416-.558.744v3.834h-1.482ZM27.347 6.237h1.356a.57.57 0 0 1 .348.102c.096.064.16.152.192.264l1.476 5.19c.036.128.068.268.096.42.032.148.062.306.09.474a5.968 5.968 0 0 1 .228-.894l1.704-5.19a.575.575 0 0 1 .186-.252.543.543 0 0 1 .348-.114h.474a.57.57 0 0 1 .348.102.497.497 0 0 1 .192.264l1.692 5.19c.088.256.164.54.228.852.028-.156.056-.306.084-.45.032-.144.064-.278.096-.402l1.476-5.19c.028-.1.09-.186.186-.258a.563.563 0 0 1 .348-.108h1.266l-2.694 8.676h-1.458l-1.896-5.928-.078-.246a9.504 9.504 0 0 1-.072-.282c-.024.1-.05.194-.078.282-.024.088-.048.17-.072.246l-1.914 5.928H30.04l-2.694-8.676ZM42.771 8.661c.46 0 .876.074 1.248.222.376.148.696.358.96.63s.468.604.612.996c.144.392.216.83.216 1.314 0 .488-.072.928-.216 1.32a2.85 2.85 0 0 1-.612 1.002 2.653 2.653 0 0 1-.96.636 3.35 3.35 0 0 1-1.248.222c-.46 0-.878-.074-1.254-.222a2.712 2.712 0 0 1-.966-.636 2.922 2.922 0 0 1-.618-1.002 3.807 3.807 0 0 1-.216-1.32c0-.484.072-.922.216-1.314.148-.392.354-.724.618-.996.268-.272.59-.482.966-.63a3.397 3.397 0 0 1 1.254-.222Zm0 5.202c.512 0 .89-.172 1.134-.516.248-.344.372-.848.372-1.512s-.124-1.17-.372-1.518c-.244-.348-.622-.522-1.134-.522-.52 0-.904.176-1.152.528-.248.348-.372.852-.372 1.512s.124 1.164.372 1.512c.248.344.632.516 1.152.516ZM46.723 14.913V8.757h.87c.152 0 .258.028.318.084.06.056.1.152.12.288l.09.744c.22-.38.478-.68.774-.9.296-.22.628-.33.996-.33.304 0 .556.07.756.21l-.192 1.11c-.012.072-.038.124-.078.156a.278.278 0 0 1-.162.042 1.01 1.01 0 0 1-.246-.042 1.646 1.646 0 0 0-.414-.042c-.308 0-.572.086-.792.258-.22.168-.406.416-.558.744v3.834h-1.482ZM52.96 5.997v8.916h-1.482V5.997h1.482ZM58.732 14.913c-.192 0-.318-.09-.378-.27l-.12-.594a3.68 3.68 0 0 1-.402.39c-.14.116-.292.216-.456.3-.16.084-.334.148-.522.192a2.372 2.372 0 0 1-.6.072c-.336 0-.644-.07-.924-.21a2.098 2.098 0 0 1-.726-.606 3.033 3.033 0 0 1-.468-.99 5.072 5.072 0 0 1-.162-1.344c0-.456.062-.88.186-1.272s.302-.732.534-1.02c.232-.288.51-.512.834-.672a2.384 2.384 0 0 1 1.092-.246 2.103 2.103 0 0 1 1.536.606V5.997h1.482v8.916h-.906Zm-1.974-1.086c.308 0 .57-.064.786-.192.216-.128.42-.31.612-.546v-2.76a1.452 1.452 0 0 0-.552-.432 1.597 1.597 0 0 0-.636-.126c-.224 0-.428.042-.612.126a1.21 1.21 0 0 0-.462.384c-.124.168-.22.384-.288.648-.068.26-.102.568-.102.924 0 .36.028.666.084.918.06.248.144.452.252.612.108.156.24.27.396.342.156.068.33.102.522.102ZM16.331 20.757v6.156H14.85v-6.156h1.481Zm.223-1.794a.844.844 0 0 1-.078.36.963.963 0 0 1-.21.294.995.995 0 0 1-.3.204.963.963 0 0 1-.372.072.948.948 0 0 1-.367-.072 1.018 1.018 0 0 1-.498-.498.963.963 0 0 1 0-.732.995.995 0 0 1 .205-.3.929.929 0 0 1 .293-.198.899.899 0 0 1 .738 0 .912.912 0 0 1 .3.198.943.943 0 0 1 .288.672ZM17.771 26.913v-6.156h.906c.192 0 .318.09.378.27l.102.486a2.934 2.934 0 0 1 .828-.618c.156-.076.322-.134.498-.174.176-.04.368-.06.576-.06.336 0 .634.058.894.174.26.112.476.272.648.48.176.204.308.45.396.738.092.284.138.598.138.942v3.918h-1.482v-3.918c0-.376-.088-.666-.264-.87-.172-.208-.432-.312-.78-.312-.256 0-.496.058-.72.174a2.58 2.58 0 0 0-.636.474v4.452h-1.482ZM34.22 22.575c0 .636-.106 1.22-.318 1.752-.212.532-.51.99-.894 1.374a4 4 0 0 1-1.386.894 4.87 4.87 0 0 1-1.794.318h-3.312v-8.676h3.312a4.79 4.79 0 0 1 1.794.324 4 4 0 0 1 1.386.894c.384.38.682.836.894 1.368.212.532.318 1.116.318 1.752Zm-1.65 0c0-.476-.064-.902-.192-1.278a2.68 2.68 0 0 0-.546-.96 2.332 2.332 0 0 0-.864-.606 2.94 2.94 0 0 0-1.14-.21h-1.686v6.108h1.686c.424 0 .804-.07 1.14-.21.34-.14.628-.34.864-.6a2.75 2.75 0 0 0 .546-.96 4.01 4.01 0 0 0 .192-1.284ZM39.98 26.913h-.665c-.14 0-.25-.02-.33-.06-.08-.044-.14-.13-.18-.258l-.132-.438c-.156.14-.31.264-.462.372a2.804 2.804 0 0 1-.462.264c-.16.072-.33.126-.51.162-.18.036-.38.054-.6.054-.26 0-.5-.034-.72-.102a1.618 1.618 0 0 1-.57-.318 1.448 1.448 0 0 1-.366-.522 1.852 1.852 0 0 1-.132-.726c0-.232.06-.46.18-.684.124-.228.328-.432.612-.612.284-.184.662-.336 1.134-.456.472-.12 1.058-.188 1.758-.204v-.36c0-.412-.088-.716-.264-.912-.172-.2-.424-.3-.756-.3a1.837 1.837 0 0 0-1.02.276c-.116.068-.224.13-.324.186a.664.664 0 0 1-.33.084.429.429 0 0 1-.258-.078.614.614 0 0 1-.174-.192l-.27-.474c.708-.648 1.562-.972 2.562-.972.36 0 .68.06.96.18.284.116.524.28.72.492.196.208.344.458.444.75.104.292.156.612.156.96v3.888Zm-2.88-.924c.153 0 .293-.014.42-.042.129-.028.249-.07.36-.126.117-.056.227-.124.33-.204.109-.084.217-.182.325-.294v-1.038c-.432.02-.794.058-1.086.114-.288.052-.52.12-.696.204a.923.923 0 0 0-.378.294.664.664 0 0 0-.108.366c0 .26.076.446.228.558.156.112.358.168.606.168ZM43.22 27.01c-.532 0-.942-.15-1.23-.45-.288-.305-.432-.723-.432-1.255v-3.438h-.624a.31.31 0 0 1-.21-.078c-.056-.052-.084-.13-.084-.234v-.588l.99-.162.312-1.68a.302.302 0 0 1 .108-.186.365.365 0 0 1 .222-.066h.768v1.938h1.62v1.056h-1.62v3.336c0 .192.048.342.144.45a.488.488 0 0 0 .384.162c.092 0 .168-.01.228-.03.064-.024.118-.048.162-.072.048-.024.09-.046.126-.066a.194.194 0 0 1 .108-.036.16.16 0 0 1 .108.036c.028.02.058.052.09.096l.444.72c-.216.18-.464.316-.744.408a2.77 2.77 0 0 1-.87.138ZM50.423 26.913h-.666c-.14 0-.25-.02-.33-.06-.08-.044-.14-.13-.18-.258l-.132-.438c-.156.14-.31.264-.462.372a2.804 2.804 0 0 1-.462.264c-.16.072-.33.126-.51.162-.18.036-.38.054-.6.054-.26 0-.5-.034-.72-.102a1.618 1.618 0 0 1-.57-.318 1.448 1.448 0 0 1-.366-.522 1.852 1.852 0 0 1-.132-.726c0-.232.06-.46.18-.684.124-.228.328-.432.612-.612.284-.184.662-.336 1.134-.456.472-.12 1.058-.188 1.758-.204v-.36c0-.412-.088-.716-.264-.912-.172-.2-.424-.3-.756-.3a1.837 1.837 0 0 0-1.02.276c-.116.068-.224.13-.324.186a.664.664 0 0 1-.33.084.429.429 0 0 1-.258-.078.614.614 0 0 1-.174-.192l-.27-.474c.708-.648 1.562-.972 2.562-.972.36 0 .68.06.96.18.284.116.524.28.72.492.196.208.344.458.444.75.104.292.156.612.156.96v3.888Zm-2.88-.924c.152 0 .292-.014.42-.042.128-.028.248-.07.36-.126.116-.056.226-.124.33-.204.108-.084.216-.182.324-.294v-1.038c-.432.02-.794.058-1.086.114-.288.052-.52.12-.696.204a.923.923 0 0 0-.378.294.664.664 0 0 0-.108.366c0 .26.076.446.228.558.156.112.358.168.606.168Z"></path></svg></g><a id="title" href="https://ourworldindata.org/grapher/causes-of-death-in-children-under-5?tab=line&amp;time=earliest..2021&amp;overlay=download-vis" style="font-family: &quot;Playfair Display&quot;, Georgia, &quot;Times New Roman&quot;, &quot;Liberation Serif&quot;, serif;"><text font-size="25.00" font-weight="600" x="16.0" y="40.3" fill="#2d2e2d"><tspan x="16" y="40.25">Causes of death in children under five, World, 1980 to 2021</tspan></text></a><g id="subtitle" class="markdown-text-wrap"><text x="16.0" y="66.5" fill="#5b5b5b" style="font-size: 15px; line-height: 1.2;"><tspan x="16" y="66.5">The estimated annual number of deaths from each cause. Estimates come with wide uncertainties especially</tspan><tspan x="16" y="84.5">for countries with poor <tspan class="dod-span" data-id="crvs">vital registration<tspan style="font-feature-settings: &quot;sups&quot;;">¹</tspan></tspan>.</tspan></text></g></g><g id="chart-area" style="pointer-events: none;"><g id="horizontal-axis" class="HorizontalAxis"><g id="tick-marks"><line id="1980" x1="79.6" y1="531.9" x2="79.6" y2="537.4" stroke="#999" stroke-width="1"></line><line id="2021" x1="604.9" y1="531.9" x2="604.9" y2="537.4" stroke="#999" stroke-width="1"></line><line id="1985" x1="143.7" y1="531.9" x2="143.7" y2="537.4" stroke="#999" stroke-width="1"></line><line id="1990" x1="207.8" y1="531.9" x2="207.8" y2="537.4" stroke="#999" stroke-width="1"></line><line id="1995" x1="271.8" y1="531.9" x2="271.8" y2="537.4" stroke="#999" stroke-width="1"></line><line id="2000" x1="335.9" y1="531.9" x2="335.9" y2="537.4" stroke="#999" stroke-width="1"></line><line id="2005" x1="399.9" y1="531.9" x2="399.9" y2="537.4" stroke="#999" stroke-width="1"></line><line id="2010" x1="464" y1="531.9" x2="464" y2="537.4" stroke="#999" stroke-width="1"></line><line id="2015" x1="528.1" y1="531.9" x2="528.1" y2="537.4" stroke="#999" stroke-width="1"></line></g><g id="tick-labels"><text x="79.63" y="550.4" fill="#5b5b5b" text-anchor="start" font-size="13">1980</text><text x="604.9300000000001" y="550.4" fill="#5b5b5b" text-anchor="end" font-size="13">2021</text><text x="143.7" y="550.4" fill="#5b5b5b" text-anchor="middle" font-size="13">1985</text><text x="207.8" y="550.4" fill="#5b5b5b" text-anchor="middle" font-size="13">1990</text><text x="271.8" y="550.4" fill="#5b5b5b" text-anchor="middle" font-size="13">1995</text><text x="335.9" y="550.4" fill="#5b5b5b" text-anchor="middle" font-size="13">2000</text><text x="399.9" y="550.4" fill="#5b5b5b" text-anchor="middle" font-size="13">2005</text><text x="464" y="550.4" fill="#5b5b5b" text-anchor="middle" font-size="13">2010</text><text x="528.1" y="550.4" fill="#5b5b5b" text-anchor="middle" font-size="13">2015</text></g></g><g id="vertical-axis" class="VerticalAxis"><g id="tick-labels"><text x="74.63" y="532.4" dy=".32em" text-anchor="end" fill="#5b5b5b" font-size="13">0</text><text x="74.63" y="448.1" dy=".32em" text-anchor="end" fill="#5b5b5b" font-size="13">500,000</text><text x="74.63" y="363.9" dy=".32em" text-anchor="end" fill="#5b5b5b" font-size="13">1 million</text><text x="74.63" y="279.6" dy=".32em" text-anchor="end" fill="#5b5b5b" font-size="13">1.5 million</text><text x="74.63" y="195.4" dy=".32em" text-anchor="end" fill="#5b5b5b" font-size="13">2 million</text><text x="74.63" y="111.1" dy=".32em" text-anchor="end" fill="#5b5b5b" font-size="13">2.5 million</text></g></g><g id="horizontal-grid-lines" class="AxisGridLines horizontalLines"><line id="0" x1="79.63" y1="532.4" x2="604.93" y2="532.4" stroke="#999"></line><line id="500,000" x1="79.63" y1="448.1" x2="604.93" y2="448.1" stroke="#ddd" stroke-dasharray="4,4"></line><line id="1-million" x1="79.63" y1="363.9" x2="604.93" y2="363.9" stroke="#ddd" stroke-dasharray="4,4"></line><line id="1.5-million" x1="79.63" y1="279.6" x2="604.93" y2="279.6" stroke="#ddd" stroke-dasharray="4,4"></line><line id="2-million" x1="79.63" y1="195.4" x2="604.93" y2="195.4" stroke="#ddd" stroke-dasharray="4,4"></line><line id="2.5-million" x1="79.63" y1="111.1" x2="604.93" y2="111.1" stroke="#ddd" stroke-dasharray="4,4"></line></g><g id="line-labels" class="LineLabels"><g id="connectors"><path id="Neonatal-preterm-birth" d="M608.9300000000001,407.7 H609.6691304347827 V114.04999999999987 H625.9300000000001" stroke="#999" stroke-width="0.5" fill="none"></path><path id="Neonatal-asphyxia-&amp;-trauma" d="M608.9300000000001,430.7 H610.4082608695653 V132.34999999999985 H625.9300000000001" stroke="#999" stroke-width="0.5" fill="none"></path><path id="Pneumonia" d="M608.9300000000001,447.8 H611.1473913043479 V150.64999999999986 H625.9300000000001" stroke="#999" stroke-width="0.5" fill="none"></path><path id="Congenital-birth-defects" d="M608.9300000000001,457.7 H611.8865217391306 V168.94999999999987 H625.9300000000001" stroke="#999" stroke-width="0.5" fill="none"></path><path id="Malaria" d="M608.9300000000001,460.9 H612.6256521739131 V187.2499999999999 H625.9300000000001" stroke="#999" stroke-width="0.5" fill="none"></path><path id="Diarrheal-diseases" d="M608.9300000000001,475 H613.3647826086957 V205.5499999999999 H625.9300000000001" stroke="#999" stroke-width="0.5" fill="none"></path><path id="Neonatal-sepsis-&amp;-infections" d="M608.9300000000001,493.2 H614.1039130434783 V223.8499999999999 H625.9300000000001" stroke="#999" stroke-width="0.5" fill="none"></path><path id="Other-neonatal-disorders" d="M608.9300000000001,495 H614.8430434782609 V242.14999999999992 H625.9300000000001" stroke="#999" stroke-width="0.5" fill="none"></path><path id="Meningitis" d="M608.9300000000001,517 H615.5821739130436 V260.44999999999993 H625.9300000000001" stroke="#999" stroke-width="0.5" fill="none"></path><path id="Nutritional-deficiencies" d="M608.9300000000001,519.5 H616.3213043478262 V278.7499999999999 H625.9300000000001" stroke="#999" stroke-width="0.5" fill="none"></path><path id="Syphilis" d="M608.9300000000001,520.2 H617.0604347826088 V297.0499999999999 H625.9300000000001" stroke="#999" stroke-width="0.5" fill="none"></path><path id="Tuberculosis" d="M608.9300000000001,523.1 H617.7995652173914 V315.3499999999999 H625.9300000000001" stroke="#999" stroke-width="0.5" fill="none"></path><path id="Drowning" d="M608.9300000000001,523.9 H618.5386956521739 V333.6499999999999 H625.9300000000001" stroke="#999" stroke-width="0.5" fill="none"></path><path id="Measles" d="M608.9300000000001,524.3 H619.2778260869566 V351.94999999999993 H625.9300000000001" stroke="#999" stroke-width="0.5" fill="none"></path><path id="Cancers" d="M608.9300000000001,526.6 H620.0169565217392 V370.24999999999994 H625.9300000000001" stroke="#999" stroke-width="0.5" fill="none"></path><path id="Invasive-Non-typhoidal-Salmonella-(iNTS)" d="M608.9300000000001,526.9 H620.7560869565218 V395.7 H625.9300000000001" stroke="#999" stroke-width="0.5" fill="none"></path><path id="Digestive-diseases" d="M608.9300000000001,528.2 H621.4952173913044 V421.15 H625.9300000000001" stroke="#999" stroke-width="0.5" fill="none"></path><path id="HIV/AIDS" d="M608.9300000000001,528.9 H622.2343478260871 V439.45 H625.9300000000001" stroke="#999" stroke-width="0.5" fill="none"></path><path id="COVID-19" d="M608.9300000000001,529.6 H622.9734782608697 V457.75 H625.9300000000001" stroke="#999" stroke-width="0.5" fill="none"></path><path id="Hepatitis" d="M608.9300000000001,530 H623.7126086956523 V476.05 H625.9300000000001" stroke="#999" stroke-width="0.5" fill="none"></path><path id="Kidney-disease" d="M608.9300000000001,531 H624.4517391304348 V494.35 H625.9300000000001" stroke="#999" stroke-width="0.5" fill="none"></path><path id="Natural-disasters" d="M608.9300000000001,532.1 H625.1908695652174 V512.6500000000001 H625.9300000000001" stroke="#999" stroke-width="0.5" fill="none"></path><path id="Heat-related-deaths-(hot-or-cold-exposure)" d="M608.9300000000001,532.3 H625.1908695652174 V538.1 H625.9300000000001" stroke="#999" stroke-width="0.5" fill="none"></path></g><g id="text-annotations"></g><g id="text-labels"><text id="label__Neonatal-preterm-birth" font-size="13.00" font-weight="400" x="629.9" y="118.9" fill="#338711" opacity="1" text-anchor="start"><tspan x="629.9300000000001" y="118.85999999999987">Neonatal preterm birth</tspan></text><text id="label__Neonatal-asphyxia-&amp;-trauma" font-size="13.00" font-weight="400" x="629.9" y="137.2" fill="#b16214" opacity="1" text-anchor="start"><tspan x="629.9300000000001" y="137.15999999999985">Neonatal asphyxia &amp; trauma</tspan></text><text id="label__Pneumonia" font-size="13.00" font-weight="400" x="629.9" y="155.5" fill="#970046" opacity="1" text-anchor="start"><tspan x="629.9300000000001" y="155.45999999999987">Pneumonia</tspan></text><text id="label__Congenital-birth-defects" font-size="13.00" font-weight="400" x="629.9" y="173.8" fill="#008291" opacity="1" text-anchor="start"><tspan x="629.9300000000001" y="173.75999999999988">Congenital birth defects</tspan></text><text id="label__Malaria" font-size="13.00" font-weight="400" x="629.9" y="192.1" fill="#b13507" opacity="1" text-anchor="start"><tspan x="629.9300000000001" y="192.0599999999999">Malaria</tspan></text><text id="label__Diarrheal-diseases" font-size="13.00" font-weight="400" x="629.9" y="210.4" fill="#578145" opacity="1" text-anchor="start"><tspan x="629.9300000000001" y="210.3599999999999">Diarrheal diseases</tspan></text><text id="label__Neonatal-sepsis-&amp;-infections" font-size="13.00" font-weight="400" x="629.9" y="228.7" fill="#286bbb" opacity="1" text-anchor="start"><tspan x="629.9300000000001" y="228.6599999999999">Neonatal sepsis &amp; infections</tspan></text><text id="label__Other-neonatal-disorders" font-size="13.00" font-weight="400" x="629.9" y="247.0" fill="#cf0a66" opacity="1" text-anchor="start"><tspan x="629.9300000000001" y="246.95999999999992">Other neonatal disorders</tspan></text><text id="label__Meningitis" font-size="13.00" font-weight="400" x="629.9" y="265.3" fill="#00847e" opacity="1" text-anchor="start"><tspan x="629.9300000000001" y="265.25999999999993">Meningitis</tspan></text><text id="label__Nutritional-deficiencies" font-size="13.00" font-weight="400" x="629.9" y="283.6" fill="#996d39" opacity="1" text-anchor="start"><tspan x="629.9300000000001" y="283.5599999999999">Nutritional deficiencies</tspan></text><text id="label__Syphilis" font-size="13.00" font-weight="400" x="629.9" y="301.9" fill="#996d39" opacity="1" text-anchor="start"><tspan x="629.9300000000001" y="301.8599999999999">Syphilis</tspan></text><text id="label__Tuberculosis" font-size="13.00" font-weight="400" x="629.9" y="320.2" fill="#00875e" opacity="1" text-anchor="start"><tspan x="629.9300000000001" y="320.1599999999999">Tuberculosis</tspan></text><text id="label__Drowning" font-size="13.00" font-weight="400" x="629.9" y="338.5" fill="#4c6a9c" opacity="1" text-anchor="start"><tspan x="629.9300000000001" y="338.4599999999999">Drowning</tspan></text><text id="label__Measles" font-size="13.00" font-weight="400" x="629.9" y="356.8" fill="#883039" opacity="1" text-anchor="start"><tspan x="629.9300000000001" y="356.75999999999993">Measles</tspan></text><text id="label__Cancers" font-size="13.00" font-weight="400" x="629.9" y="375.1" fill="#6d3e91" opacity="1" text-anchor="start"><tspan x="629.9300000000001" y="375.05999999999995">Cancers</tspan></text><text id="label__Invasive-Non-typhoidal-Salmonella-(iNTS)" font-size="13.00" font-weight="400" x="629.9" y="393.4" fill="#4c6a9c" opacity="1" text-anchor="start"><tspan x="629.9300000000001" y="393.35999999999996">Invasive Non-typhoidal Salmonella</tspan><tspan x="629.9300000000001" y="407.65999999999997">(iNTS)</tspan></text><text id="label__Digestive-diseases" font-size="13.00" font-weight="400" x="629.9" y="426.0" fill="#00295b" opacity="1" text-anchor="start"><tspan x="629.9300000000001" y="425.96">Digestive diseases</tspan></text><text id="label__HIV/AIDS" font-size="13.00" font-weight="400" x="629.9" y="444.3" fill="#c15065" opacity="1" text-anchor="start"><tspan x="629.9300000000001" y="444.26">HIV/AIDS</tspan></text><text id="label__COVID-19" font-size="13.00" font-weight="400" x="629.9" y="462.6" fill="#2c8465" opacity="1" text-anchor="start"><tspan x="629.9300000000001" y="462.56">COVID-19</tspan></text><text id="label__Hepatitis" font-size="13.00" font-weight="400" x="629.9" y="480.9" fill="#2c8465" opacity="1" text-anchor="start"><tspan x="629.9300000000001" y="480.86">Hepatitis</tspan></text><text id="label__Kidney-disease" font-size="13.00" font-weight="400" x="629.9" y="499.2" fill="#a2559c" opacity="1" text-anchor="start"><tspan x="629.9300000000001" y="499.16">Kidney disease</tspan></text><text id="label__Natural-disasters" font-size="13.00" font-weight="400" x="629.9" y="517.5" fill="#18470f" opacity="1" text-anchor="start"><tspan x="629.9300000000001" y="517.46">Natural disasters</tspan></text><text id="label__Heat-related-deaths-(hot-or-cold-exposure)" font-size="13.00" font-weight="400" x="629.9" y="535.8" fill="#c4523e" opacity="1" text-anchor="start"><tspan x="629.9300000000001" y="535.7600000000001">Heat-related deaths (hot or cold</tspan><tspan x="629.9300000000001" y="550.0600000000001">exposure)</tspan></text></g></g><g id="lines"><path fill="none" stroke-linecap="butt" stroke-linejoin="round" stroke="#ffffff" id="outline__COVID-19" stroke-width="2.5" d="M79.6 532.4L92.4 532.4L105.3 532.4L118.1 532.4L130.9 532.4L143.7 532.4L156.5 532.4L169.3 532.4L182.1 532.4L194.9 532.4L207.8 532.4L220.6 532.4L233.4 532.4L246.2 532.4L259 532.4L271.8 532.4L284.6 532.4L297.4 532.4L310.2 532.4L323.1 532.4L335.9 532.4L348.7 532.4L361.5 532.4L374.3 532.4L387.1 532.4L399.9 532.4L412.7 532.4L425.6 532.4L438.4 532.4L451.2 532.4L464 532.4L476.8 532.4L489.6 532.4L502.4 532.4L515.2 532.4L528.1 532.4L540.9 532.4L553.7 532.4L566.5 532.4L579.3 532.4L592.1 530.7L604.9 529.6"></path><path fill="none" stroke-linecap="butt" stroke-linejoin="round" stroke="#2c8465" id="line__COVID-19" stroke-width="1.5" stroke-opacity="1" d="M79.6 532.4L92.4 532.4L105.3 532.4L118.1 532.4L130.9 532.4L143.7 532.4L156.5 532.4L169.3 532.4L182.1 532.4L194.9 532.4L207.8 532.4L220.6 532.4L233.4 532.4L246.2 532.4L259 532.4L271.8 532.4L284.6 532.4L297.4 532.4L310.2 532.4L323.1 532.4L335.9 532.4L348.7 532.4L361.5 532.4L374.3 532.4L387.1 532.4L399.9 532.4L412.7 532.4L425.6 532.4L438.4 532.4L451.2 532.4L464 532.4L476.8 532.4L489.6 532.4L502.4 532.4L515.2 532.4L528.1 532.4L540.9 532.4L553.7 532.4L566.5 532.4L579.3 532.4L592.1 530.7L604.9 529.6"></path><path fill="none" stroke-linecap="butt" stroke-linejoin="round" stroke="#ffffff" id="outline__Syphilis" stroke-width="2.5" d="M79.6 518.2L92.4 518.1L105.3 517.9L118.1 517.8L130.9 517.7L143.7 517.6L156.5 517.7L169.3 517.7L182.1 517.8L194.9 517.8L207.8 517.8L220.6 517.8L233.4 517.7L246.2 517.6L259 517.6L271.8 517.5L284.6 517.5L297.4 517.5L310.2 517.6L323.1 517.7L335.9 517.7L348.7 517.8L361.5 517.9L374.3 518L387.1 518.1L399.9 518.1L412.7 518.3L425.6 518.7L438.4 519.3L451.2 519.8L464 520.1L476.8 520.2L489.6 520.2L502.4 520.3L515.2 520.3L528.1 520.4L540.9 520.4L553.7 520.6L566.5 520.7L579.3 520.9L592.1 520.9L604.9 520.2"></path><path fill="none" stroke-linecap="butt" stroke-linejoin="round" stroke="#996d39" id="line__Syphilis" stroke-width="1.5" stroke-opacity="1" d="M79.6 518.2L92.4 518.1L105.3 517.9L118.1 517.8L130.9 517.7L143.7 517.6L156.5 517.7L169.3 517.7L182.1 517.8L194.9 517.8L207.8 517.8L220.6 517.8L233.4 517.7L246.2 517.6L259 517.6L271.8 517.5L284.6 517.5L297.4 517.5L310.2 517.6L323.1 517.7L335.9 517.7L348.7 517.8L361.5 517.9L374.3 518L387.1 518.1L399.9 518.1L412.7 518.3L425.6 518.7L438.4 519.3L451.2 519.8L464 520.1L476.8 520.2L489.6 520.2L502.4 520.3L515.2 520.3L528.1 520.4L540.9 520.4L553.7 520.6L566.5 520.7L579.3 520.9L592.1 520.9L604.9 520.2"></path><path fill="none" stroke-linecap="butt" stroke-linejoin="round" stroke="#ffffff" id="outline__Malaria" stroke-width="2.5" d="M79.6 459.6L92.4 458.2L105.3 457.2L118.1 456.4L130.9 455.6L143.7 454.1L156.5 452.7L169.3 451.6L182.1 450.6L194.9 450.3L207.8 449.1L220.6 447.4L233.4 446.4L246.2 445.7L259 445L271.8 443.7L284.6 442.3L297.4 440.4L310.2 438.6L323.1 437.3L335.9 437.3L348.7 435L361.5 434.2L374.3 432.6L387.1 432L399.9 434.3L412.7 436.4L425.6 438.1L438.4 438.7L451.2 439.9L464 442.4L476.8 447.3L489.6 451.3L502.4 455.4L515.2 457.9L528.1 459.1L540.9 461.8L553.7 464.9L566.5 466.2L579.3 467.5L592.1 459.9L604.9 460.9"></path><path fill="none" stroke-linecap="butt" stroke-linejoin="round" stroke="#b13507" id="line__Malaria" stroke-width="1.5" stroke-opacity="1" d="M79.6 459.6L92.4 458.2L105.3 457.2L118.1 456.4L130.9 455.6L143.7 454.1L156.5 452.7L169.3 451.6L182.1 450.6L194.9 450.3L207.8 449.1L220.6 447.4L233.4 446.4L246.2 445.7L259 445L271.8 443.7L284.6 442.3L297.4 440.4L310.2 438.6L323.1 437.3L335.9 437.3L348.7 435L361.5 434.2L374.3 432.6L387.1 432L399.9 434.3L412.7 436.4L425.6 438.1L438.4 438.7L451.2 439.9L464 442.4L476.8 447.3L489.6 451.3L502.4 455.4L515.2 457.9L528.1 459.1L540.9 461.8L553.7 464.9L566.5 466.2L579.3 467.5L592.1 459.9L604.9 460.9"></path><path fill="none" stroke-linecap="butt" stroke-linejoin="round" stroke="#ffffff" id="outline__Drowning" stroke-width="2.5" d="M79.6 486.2L92.4 487.6L105.3 489.1L118.1 490.3L130.9 491.4L143.7 491.9L156.5 492.4L169.3 492.7L182.1 493.4L194.9 494.2L207.8 494.6L220.6 495.1L233.4 496.2L246.2 497.4L259 498.7L271.8 500L284.6 501.6L297.4 503L310.2 504.3L323.1 505.9L335.9 507.4L348.7 508.6L361.5 509.6L374.3 510.7L387.1 511.7L399.9 512.6L412.7 513.4L425.6 514L438.4 514.7L451.2 515.3L464 516L476.8 516.8L489.6 517.4L502.4 518L515.2 518.6L528.1 519L540.9 519.6L553.7 520.3L566.5 521.1L579.3 521.9L592.1 523.1L604.9 523.9"></path><path fill="none" stroke-linecap="butt" stroke-linejoin="round" stroke="#4c6a9c" id="line__Drowning" stroke-width="1.5" stroke-opacity="1" d="M79.6 486.2L92.4 487.6L105.3 489.1L118.1 490.3L130.9 491.4L143.7 491.9L156.5 492.4L169.3 492.7L182.1 493.4L194.9 494.2L207.8 494.6L220.6 495.1L233.4 496.2L246.2 497.4L259 498.7L271.8 500L284.6 501.6L297.4 503L310.2 504.3L323.1 505.9L335.9 507.4L348.7 508.6L361.5 509.6L374.3 510.7L387.1 511.7L399.9 512.6L412.7 513.4L425.6 514L438.4 514.7L451.2 515.3L464 516L476.8 516.8L489.6 517.4L502.4 518L515.2 518.6L528.1 519L540.9 519.6L553.7 520.3L566.5 521.1L579.3 521.9L592.1 523.1L604.9 523.9"></path><path fill="none" stroke-linecap="butt" stroke-linejoin="round" stroke="#ffffff" id="outline__HIV/AIDS" stroke-width="2.5" d="M79.6 532.3L92.4 532.1L105.3 532L118.1 531.8L130.9 531.4L143.7 530.9L156.5 530.3L169.3 529.4L182.1 528.3L194.9 526.8L207.8 525L220.6 523.1L233.4 521L246.2 518.9L259 517L271.8 515L284.6 513.1L297.4 511.4L310.2 510.4L323.1 509.6L335.9 509.1L348.7 508.7L361.5 508.6L374.3 508.6L387.1 508.9L399.9 509.7L412.7 511.2L425.6 513.2L438.4 515.3L451.2 517.3L464 519.2L476.8 520.8L489.6 522.2L502.4 523.6L515.2 524.8L528.1 525.8L540.9 526.4L553.7 526.7L566.5 526.9L579.3 527.4L592.1 528.2L604.9 528.9"></path><path fill="none" stroke-linecap="butt" stroke-linejoin="round" stroke="#c15065" id="line__HIV/AIDS" stroke-width="1.5" stroke-opacity="1" d="M79.6 532.3L92.4 532.1L105.3 532L118.1 531.8L130.9 531.4L143.7 530.9L156.5 530.3L169.3 529.4L182.1 528.3L194.9 526.8L207.8 525L220.6 523.1L233.4 521L246.2 518.9L259 517L271.8 515L284.6 513.1L297.4 511.4L310.2 510.4L323.1 509.6L335.9 509.1L348.7 508.7L361.5 508.6L374.3 508.6L387.1 508.9L399.9 509.7L412.7 511.2L425.6 513.2L438.4 515.3L451.2 517.3L464 519.2L476.8 520.8L489.6 522.2L502.4 523.6L515.2 524.8L528.1 525.8L540.9 526.4L553.7 526.7L566.5 526.9L579.3 527.4L592.1 528.2L604.9 528.9"></path><path fill="none" stroke-linecap="butt" stroke-linejoin="round" stroke="#ffffff" id="outline__Tuberculosis" stroke-width="2.5" d="M79.6 483.6L92.4 484.6L105.3 485.7L118.1 486.7L130.9 487.6L143.7 488.7L156.5 489.8L169.3 490.9L182.1 492L194.9 493.1L207.8 494L220.6 495L233.4 496L246.2 497.1L259 498.1L271.8 499L284.6 500.1L297.4 501.2L310.2 502.4L323.1 503.5L335.9 504.4L348.7 505.4L361.5 506.3L374.3 507.2L387.1 508.2L399.9 509.2L412.7 510L425.6 511L438.4 512L451.2 512.9L464 513.9L476.8 514.7L489.6 515.3L502.4 515.8L515.2 516.4L528.1 517.2L540.9 518.1L553.7 519.2L566.5 520.3L579.3 521.3L592.1 522.2L604.9 523.1"></path><path fill="none" stroke-linecap="butt" stroke-linejoin="round" stroke="#00875e" id="line__Tuberculosis" stroke-width="1.5" stroke-opacity="1" d="M79.6 483.6L92.4 484.6L105.3 485.7L118.1 486.7L130.9 487.6L143.7 488.7L156.5 489.8L169.3 490.9L182.1 492L194.9 493.1L207.8 494L220.6 495L233.4 496L246.2 497.1L259 498.1L271.8 499L284.6 500.1L297.4 501.2L310.2 502.4L323.1 503.5L335.9 504.4L348.7 505.4L361.5 506.3L374.3 507.2L387.1 508.2L399.9 509.2L412.7 510L425.6 511L438.4 512L451.2 512.9L464 513.9L476.8 514.7L489.6 515.3L502.4 515.8L515.2 516.4L528.1 517.2L540.9 518.1L553.7 519.2L566.5 520.3L579.3 521.3L592.1 522.2L604.9 523.1"></path><path fill="none" stroke-linecap="butt" stroke-linejoin="round" stroke="#ffffff" id="outline__Road-accidents" stroke-width="2.5" d="M79.6 509.5L92.4 509.9L105.3 510.4L118.1 511L130.9 511.5L143.7 511.8L156.5 512.1L169.3 512.4L182.1 512.7L194.9 513L207.8 513.4L220.6 513.8L233.4 514.2L246.2 514.8L259 515.3L271.8 515.9L284.6 516.6L297.4 517.2L310.2 517.8L323.1 518.3L335.9 518.8L348.7 519.2L361.5 519.6L374.3 520L387.1 520.5L399.9 520.8L412.7 521.1L425.6 521.4L438.4 521.7L451.2 521.9L464 522.2L476.8 522.5L489.6 522.7L502.4 523L515.2 523.2L528.1 523.4L540.9 523.7L553.7 524.2L566.5 524.7L579.3 525.2L592.1 526.1L604.9 526.6"></path><path fill="none" stroke-linecap="butt" stroke-linejoin="round" stroke="#8c4569" id="line__Road-accidents" stroke-width="1.5" stroke-opacity="1" d="M79.6 509.5L92.4 509.9L105.3 510.4L118.1 511L130.9 511.5L143.7 511.8L156.5 512.1L169.3 512.4L182.1 512.7L194.9 513L207.8 513.4L220.6 513.8L233.4 514.2L246.2 514.8L259 515.3L271.8 515.9L284.6 516.6L297.4 517.2L310.2 517.8L323.1 518.3L335.9 518.8L348.7 519.2L361.5 519.6L374.3 520L387.1 520.5L399.9 520.8L412.7 521.1L425.6 521.4L438.4 521.7L451.2 521.9L464 522.2L476.8 522.5L489.6 522.7L502.4 523L515.2 523.2L528.1 523.4L540.9 523.7L553.7 524.2L566.5 524.7L579.3 525.2L592.1 526.1L604.9 526.6"></path><path fill="none" stroke-linecap="butt" stroke-linejoin="round" stroke="#ffffff" id="outline__Fire" stroke-width="2.5" d="M79.6 524.4L92.4 524.6L105.3 524.7L118.1 524.8L130.9 524.9L143.7 525L156.5 525.1L169.3 525.1L182.1 525.3L194.9 525.4L207.8 525.5L220.6 525.6L233.4 525.8L246.2 525.9L259 526.1L271.8 526.3L284.6 526.6L297.4 526.7L310.2 527L323.1 527.1L335.9 527.3L348.7 527.4L361.5 527.6L374.3 527.7L387.1 527.8L399.9 527.9L412.7 528L425.6 528.1L438.4 528.2L451.2 528.2L464 528.3L476.8 528.4L489.6 528.4L502.4 528.5L515.2 528.5L528.1 528.6L540.9 528.7L553.7 528.9L566.5 529.1L579.3 529.3L592.1 529.5L604.9 529.7"></path><path fill="none" stroke-linecap="butt" stroke-linejoin="round" stroke="#be5915" id="line__Fire" stroke-width="1.5" stroke-opacity="1" d="M79.6 524.4L92.4 524.6L105.3 524.7L118.1 524.8L130.9 524.9L143.7 525L156.5 525.1L169.3 525.1L182.1 525.3L194.9 525.4L207.8 525.5L220.6 525.6L233.4 525.8L246.2 525.9L259 526.1L271.8 526.3L284.6 526.6L297.4 526.7L310.2 527L323.1 527.1L335.9 527.3L348.7 527.4L361.5 527.6L374.3 527.7L387.1 527.8L399.9 527.9L412.7 528L425.6 528.1L438.4 528.2L451.2 528.2L464 528.3L476.8 528.4L489.6 528.4L502.4 528.5L515.2 528.5L528.1 528.6L540.9 528.7L553.7 528.9L566.5 529.1L579.3 529.3L592.1 529.5L604.9 529.7"></path><path fill="none" stroke-linecap="butt" stroke-linejoin="round" stroke="#ffffff" id="outline__Diarrheal-diseases" stroke-width="2.5" d="M79.6 155.2L92.4 163.9L105.3 172.7L118.1 182.4L130.9 191.4L143.7 202.3L156.5 213.5L169.3 225L182.1 235.9L194.9 247L207.8 256.6L220.6 262L233.4 272.6L246.2 281.9L259 288.5L271.8 298.6L284.6 307.3L297.4 315.6L310.2 323.7L323.1 332.6L335.9 340.6L348.7 347.7L361.5 354.6L374.3 361.5L387.1 367.8L399.9 372.8L412.7 376.8L425.6 382.5L438.4 389.1L451.2 395.6L464 402.4L476.8 409.6L489.6 418.3L502.4 424.9L515.2 432.6L528.1 439.4L540.9 445.1L553.7 451.4L566.5 457.5L579.3 463.3L592.1 471L604.9 475"></path><path fill="none" stroke-linecap="butt" stroke-linejoin="round" stroke="#578145" id="line__Diarrheal-diseases" stroke-width="1.5" stroke-opacity="1" d="M79.6 155.2L92.4 163.9L105.3 172.7L118.1 182.4L130.9 191.4L143.7 202.3L156.5 213.5L169.3 225L182.1 235.9L194.9 247L207.8 256.6L220.6 262L233.4 272.6L246.2 281.9L259 288.5L271.8 298.6L284.6 307.3L297.4 315.6L310.2 323.7L323.1 332.6L335.9 340.6L348.7 347.7L361.5 354.6L374.3 361.5L387.1 367.8L399.9 372.8L412.7 376.8L425.6 382.5L438.4 389.1L451.2 395.6L464 402.4L476.8 409.6L489.6 418.3L502.4 424.9L515.2 432.6L528.1 439.4L540.9 445.1L553.7 451.4L566.5 457.5L579.3 463.3L592.1 471L604.9 475"></path><path fill="none" stroke-linecap="butt" stroke-linejoin="round" stroke="#ffffff" id="outline__Other-neonatal-disorders" stroke-width="2.5" d="M79.6 468.5L92.4 468.5L105.3 468.6L118.1 468.5L130.9 468.9L143.7 469.3L156.5 469.9L169.3 470.4L182.1 471L194.9 471.6L207.8 472.1L220.6 472.4L233.4 472.5L246.2 472.6L259 472.8L271.8 473.3L284.6 473.9L297.4 474.5L310.2 474.8L323.1 475.2L335.9 475.9L348.7 476.7L361.5 477.4L374.3 477.8L387.1 478L399.9 478.4L412.7 479.1L425.6 479.9L438.4 480.6L451.2 481.5L464 482.6L476.8 483.6L489.6 484.7L502.4 485.3L515.2 486.1L528.1 486.9L540.9 488.1L553.7 489.5L566.5 491L579.3 492.3L592.1 493.5L604.9 495"></path><path fill="none" stroke-linecap="butt" stroke-linejoin="round" stroke="#cf0a66" id="line__Other-neonatal-disorders" stroke-width="1.5" stroke-opacity="1" d="M79.6 468.5L92.4 468.5L105.3 468.6L118.1 468.5L130.9 468.9L143.7 469.3L156.5 469.9L169.3 470.4L182.1 471L194.9 471.6L207.8 472.1L220.6 472.4L233.4 472.5L246.2 472.6L259 472.8L271.8 473.3L284.6 473.9L297.4 474.5L310.2 474.8L323.1 475.2L335.9 475.9L348.7 476.7L361.5 477.4L374.3 477.8L387.1 478L399.9 478.4L412.7 479.1L425.6 479.9L438.4 480.6L451.2 481.5L464 482.6L476.8 483.6L489.6 484.7L502.4 485.3L515.2 486.1L528.1 486.9L540.9 488.1L553.7 489.5L566.5 491L579.3 492.3L592.1 493.5L604.9 495"></path><path fill="none" stroke-linecap="butt" stroke-linejoin="round" stroke="#ffffff" id="outline__Meningitis" stroke-width="2.5" d="M79.6 481.8L92.4 482L105.3 482.7L118.1 483.4L130.9 483.3L143.7 484.2L156.5 484.5L169.3 484.8L182.1 485.3L194.9 485.7L207.8 486.5L220.6 487.2L233.4 487.5L246.2 488.3L259 489.2L271.8 489.7L284.6 488.9L297.4 491.1L310.2 492.3L323.1 492.8L335.9 493.5L348.7 494.2L361.5 495L374.3 495.4L387.1 496.3L399.9 497L412.7 497.5L425.6 498.2L438.4 499.6L451.2 500.4L464 501.8L476.8 502.9L489.6 504L502.4 504.9L515.2 506.3L528.1 508.1L540.9 509.7L553.7 511.4L566.5 513L579.3 514.3L592.1 515.8L604.9 517"></path><path fill="none" stroke-linecap="butt" stroke-linejoin="round" stroke="#00847e" id="line__Meningitis" stroke-width="1.5" stroke-opacity="1" d="M79.6 481.8L92.4 482L105.3 482.7L118.1 483.4L130.9 483.3L143.7 484.2L156.5 484.5L169.3 484.8L182.1 485.3L194.9 485.7L207.8 486.5L220.6 487.2L233.4 487.5L246.2 488.3L259 489.2L271.8 489.7L284.6 488.9L297.4 491.1L310.2 492.3L323.1 492.8L335.9 493.5L348.7 494.2L361.5 495L374.3 495.4L387.1 496.3L399.9 497L412.7 497.5L425.6 498.2L438.4 499.6L451.2 500.4L464 501.8L476.8 502.9L489.6 504L502.4 504.9L515.2 506.3L528.1 508.1L540.9 509.7L553.7 511.4L566.5 513L579.3 514.3L592.1 515.8L604.9 517"></path><path fill="none" stroke-linecap="butt" stroke-linejoin="round" stroke="#ffffff" id="outline__Neonatal-asphyxia-&amp;-trauma" stroke-width="2.5" d="M79.6 383.6L92.4 383.7L105.3 383.5L118.1 382.5L130.9 381.4L143.7 381.2L156.5 381.8L169.3 382.4L182.1 382.8L194.9 383L207.8 383.6L220.6 384L233.4 384.6L246.2 384.8L259 385.3L271.8 386L284.6 386.8L297.4 387.9L310.2 388.5L323.1 389.1L335.9 390.1L348.7 390.9L361.5 391.6L374.3 391.7L387.1 391.7L399.9 392L412.7 392.5L425.6 393.8L438.4 395.2L451.2 396.9L464 399.1L476.8 401.2L489.6 403.2L502.4 404.8L515.2 407.1L528.1 409.4L540.9 412.1L553.7 415.6L566.5 419.9L579.3 424.2L592.1 427.1L604.9 430.7"></path><path fill="none" stroke-linecap="butt" stroke-linejoin="round" stroke="#b16214" id="line__Neonatal-asphyxia-&amp;-trauma" stroke-width="1.5" stroke-opacity="1" d="M79.6 383.6L92.4 383.7L105.3 383.5L118.1 382.5L130.9 381.4L143.7 381.2L156.5 381.8L169.3 382.4L182.1 382.8L194.9 383L207.8 383.6L220.6 384L233.4 384.6L246.2 384.8L259 385.3L271.8 386L284.6 386.8L297.4 387.9L310.2 388.5L323.1 389.1L335.9 390.1L348.7 390.9L361.5 391.6L374.3 391.7L387.1 391.7L399.9 392L412.7 392.5L425.6 393.8L438.4 395.2L451.2 396.9L464 399.1L476.8 401.2L489.6 403.2L502.4 404.8L515.2 407.1L528.1 409.4L540.9 412.1L553.7 415.6L566.5 419.9L579.3 424.2L592.1 427.1L604.9 430.7"></path><path fill="none" stroke-linecap="butt" stroke-linejoin="round" stroke="#ffffff" id="outline__Diabetes-mellitus" stroke-width="2.5" d="M79.6 531.9L92.4 531.9L105.3 531.9L118.1 531.9L130.9 531.9L143.7 531.9L156.5 531.9L169.3 531.9L182.1 531.9L194.9 531.9L207.8 531.9L220.6 531.9L233.4 531.9L246.2 531.9L259 531.9L271.8 531.9L284.6 532L297.4 532L310.2 532L323.1 532L335.9 532L348.7 532L361.5 532L374.3 532L387.1 532L399.9 532L412.7 532L425.6 532L438.4 532L451.2 532L464 532L476.8 532L489.6 532L502.4 532L515.2 532L528.1 532L540.9 532L553.7 532L566.5 532L579.3 532L592.1 532L604.9 532.1"></path><path fill="none" stroke-linecap="butt" stroke-linejoin="round" stroke="#d73c50" id="line__Diabetes-mellitus" stroke-width="1.5" stroke-opacity="1" d="M79.6 531.9L92.4 531.9L105.3 531.9L118.1 531.9L130.9 531.9L143.7 531.9L156.5 531.9L169.3 531.9L182.1 531.9L194.9 531.9L207.8 531.9L220.6 531.9L233.4 531.9L246.2 531.9L259 531.9L271.8 531.9L284.6 532L297.4 532L310.2 532L323.1 532L335.9 532L348.7 532L361.5 532L374.3 532L387.1 532L399.9 532L412.7 532L425.6 532L438.4 532L451.2 532L464 532L476.8 532L489.6 532L502.4 532L515.2 532L528.1 532L540.9 532L553.7 532L566.5 532L579.3 532L592.1 532L604.9 532.1"></path><path fill="none" stroke-linecap="butt" stroke-linejoin="round" stroke="#ffffff" id="outline__Natural-disasters" stroke-width="2.5" d="M79.6 531.6L92.4 531.7L105.3 531.8L118.1 531.9L130.9 532L143.7 529.9L156.5 532L169.3 531.6L182.1 530.7L194.9 532L207.8 529.8L220.6 523.5L233.4 531.8L246.2 531.4L259 531.8L271.8 531.7L284.6 531.8L297.4 531.6L310.2 530L323.1 529.7L335.9 532L348.7 531.2L361.5 532L374.3 531.3L387.1 523.3L399.9 528.2L412.7 531.6L425.6 531.7L438.4 525.3L451.2 532L464 520.6L476.8 531.8L489.6 532.1L502.4 531.4L515.2 532.2L528.1 531.8L540.9 532.1L553.7 532L566.5 532L579.3 532.1L592.1 532.1L604.9 532.1"></path><path fill="none" stroke-linecap="butt" stroke-linejoin="round" stroke="#18470f" id="line__Natural-disasters" stroke-width="1.5" stroke-opacity="1" d="M79.6 531.6L92.4 531.7L105.3 531.8L118.1 531.9L130.9 532L143.7 529.9L156.5 532L169.3 531.6L182.1 530.7L194.9 532L207.8 529.8L220.6 523.5L233.4 531.8L246.2 531.4L259 531.8L271.8 531.7L284.6 531.8L297.4 531.6L310.2 530L323.1 529.7L335.9 532L348.7 531.2L361.5 532L374.3 531.3L387.1 523.3L399.9 528.2L412.7 531.6L425.6 531.7L438.4 525.3L451.2 532L464 520.6L476.8 531.8L489.6 532.1L502.4 531.4L515.2 532.2L528.1 531.8L540.9 532.1L553.7 532L566.5 532L579.3 532.1L592.1 532.1L604.9 532.1"></path><path fill="none" stroke-linecap="butt" stroke-linejoin="round" stroke="#ffffff" id="outline__Neonatal-sepsis-&amp;-infections" stroke-width="2.5" d="M79.6 481.2L92.4 481L105.3 480.8L118.1 480.6L130.9 480.5L143.7 480.6L156.5 480.6L169.3 480.7L182.1 480.9L194.9 481.1L207.8 481.2L220.6 481.2L233.4 481.2L246.2 481.1L259 481L271.8 480.9L284.6 480.8L297.4 480.9L310.2 480.9L323.1 481L335.9 481.1L348.7 481.3L361.5 481.5L374.3 481.6L387.1 481.7L399.9 481.8L412.7 482.2L425.6 482.7L438.4 483.2L451.2 483.7L464 484.3L476.8 484.7L489.6 485L502.4 485.2L515.2 485.6L528.1 486.3L540.9 487.3L553.7 488.4L566.5 489.6L579.3 490.4L592.1 492.1L604.9 493.2"></path><path fill="none" stroke-linecap="butt" stroke-linejoin="round" stroke="#286bbb" id="line__Neonatal-sepsis-&amp;-infections" stroke-width="1.5" stroke-opacity="1" d="M79.6 481.2L92.4 481L105.3 480.8L118.1 480.6L130.9 480.5L143.7 480.6L156.5 480.6L169.3 480.7L182.1 480.9L194.9 481.1L207.8 481.2L220.6 481.2L233.4 481.2L246.2 481.1L259 481L271.8 480.9L284.6 480.8L297.4 480.9L310.2 480.9L323.1 481L335.9 481.1L348.7 481.3L361.5 481.5L374.3 481.6L387.1 481.7L399.9 481.8L412.7 482.2L425.6 482.7L438.4 483.2L451.2 483.7L464 484.3L476.8 484.7L489.6 485L502.4 485.2L515.2 485.6L528.1 486.3L540.9 487.3L553.7 488.4L566.5 489.6L579.3 490.4L592.1 492.1L604.9 493.2"></path><path fill="none" stroke-linecap="butt" stroke-linejoin="round" stroke="#ffffff" id="outline__Heat-related-deaths-(hot-or-cold-exposure)" stroke-width="2.5" d="M79.6 532L92.4 532L105.3 532L118.1 532L130.9 532L143.7 532L156.5 532L169.3 532L182.1 532L194.9 532L207.8 532L220.6 532L233.4 532L246.2 532L259 532L271.8 532L284.6 532.1L297.4 532.1L310.2 532.1L323.1 532.1L335.9 532.1L348.7 532.1L361.5 532.1L374.3 532.2L387.1 532.2L399.9 532.2L412.7 532.2L425.6 532.2L438.4 532.2L451.2 532.2L464 532.2L476.8 532.2L489.6 532.2L502.4 532.2L515.2 532.2L528.1 532.2L540.9 532.2L553.7 532.2L566.5 532.2L579.3 532.2L592.1 532.2L604.9 532.3"></path><path fill="none" stroke-linecap="butt" stroke-linejoin="round" stroke="#c4523e" id="line__Heat-related-deaths-(hot-or-cold-exposure)" stroke-width="1.5" stroke-opacity="1" d="M79.6 532L92.4 532L105.3 532L118.1 532L130.9 532L143.7 532L156.5 532L169.3 532L182.1 532L194.9 532L207.8 532L220.6 532L233.4 532L246.2 532L259 532L271.8 532L284.6 532.1L297.4 532.1L310.2 532.1L323.1 532.1L335.9 532.1L348.7 532.1L361.5 532.1L374.3 532.2L387.1 532.2L399.9 532.2L412.7 532.2L425.6 532.2L438.4 532.2L451.2 532.2L464 532.2L476.8 532.2L489.6 532.2L502.4 532.2L515.2 532.2L528.1 532.2L540.9 532.2L553.7 532.2L566.5 532.2L579.3 532.2L592.1 532.2L604.9 532.3"></path><path fill="none" stroke-linecap="butt" stroke-linejoin="round" stroke="#ffffff" id="outline__Neonatal-preterm-birth" stroke-width="2.5" d="M79.6 290L92.4 291.8L105.3 293.3L118.1 294.5L130.9 295.6L143.7 298.1L156.5 301.5L169.3 304.6L182.1 307.8L194.9 311.1L207.8 314.2L220.6 317L233.4 319.6L246.2 322.2L259 325.5L271.8 329.4L284.6 334L297.4 338.6L310.2 341.3L323.1 343.9L335.9 347.6L348.7 351.3L361.5 353.9L374.3 355.2L387.1 356.4L399.9 357.8L412.7 358.7L425.6 359.1L438.4 359.5L451.2 360.9L464 363.1L476.8 365.4L489.6 367L502.4 368.9L515.2 372L528.1 374.4L540.9 378.7L553.7 383.7L566.5 389.5L579.3 395.5L592.1 401.8L604.9 407.7"></path><path fill="none" stroke-linecap="butt" stroke-linejoin="round" stroke="#338711" id="line__Neonatal-preterm-birth" stroke-width="1.5" stroke-opacity="1" d="M79.6 290L92.4 291.8L105.3 293.3L118.1 294.5L130.9 295.6L143.7 298.1L156.5 301.5L169.3 304.6L182.1 307.8L194.9 311.1L207.8 314.2L220.6 317L233.4 319.6L246.2 322.2L259 325.5L271.8 329.4L284.6 334L297.4 338.6L310.2 341.3L323.1 343.9L335.9 347.6L348.7 351.3L361.5 353.9L374.3 355.2L387.1 356.4L399.9 357.8L412.7 358.7L425.6 359.1L438.4 359.5L451.2 360.9L464 363.1L476.8 365.4L489.6 367L502.4 368.9L515.2 372L528.1 374.4L540.9 378.7L553.7 383.7L566.5 389.5L579.3 395.5L592.1 401.8L604.9 407.7"></path><path fill="none" stroke-linecap="butt" stroke-linejoin="round" stroke="#ffffff" id="outline__Pneumonia" stroke-width="2.5" d="M79.6 110L92.4 119.8L105.3 131.2L118.1 140.9L130.9 148.7L143.7 158.1L156.5 168.9L169.3 178.8L182.1 187.7L194.9 196.2L207.8 204.6L220.6 212.9L233.4 220.8L246.2 228.8L259 237.6L271.8 245.2L284.6 254.9L297.4 264.4L310.2 274.4L323.1 283.4L335.9 291.3L348.7 299.4L361.5 306.7L374.3 314.5L387.1 322.2L399.9 329.2L412.7 335.4L425.6 341.8L438.4 348.2L451.2 354.6L464 361.6L476.8 367.1L489.6 371.5L502.4 374.4L515.2 379.6L528.1 385L540.9 391.8L553.7 399.6L566.5 408L579.3 415.6L592.1 438.5L604.9 447.8"></path><path fill="none" stroke-linecap="butt" stroke-linejoin="round" stroke="#970046" id="line__Pneumonia" stroke-width="1.5" stroke-opacity="1" d="M79.6 110L92.4 119.8L105.3 131.2L118.1 140.9L130.9 148.7L143.7 158.1L156.5 168.9L169.3 178.8L182.1 187.7L194.9 196.2L207.8 204.6L220.6 212.9L233.4 220.8L246.2 228.8L259 237.6L271.8 245.2L284.6 254.9L297.4 264.4L310.2 274.4L323.1 283.4L335.9 291.3L348.7 299.4L361.5 306.7L374.3 314.5L387.1 322.2L399.9 329.2L412.7 335.4L425.6 341.8L438.4 348.2L451.2 354.6L464 361.6L476.8 367.1L489.6 371.5L502.4 374.4L515.2 379.6L528.1 385L540.9 391.8L553.7 399.6L566.5 408L579.3 415.6L592.1 438.5L604.9 447.8"></path><path fill="none" stroke-linecap="butt" stroke-linejoin="round" stroke="#ffffff" id="outline__Congenital-birth-defects" stroke-width="2.5" d="M79.6 377.9L92.4 379L105.3 380.2L118.1 380.9L130.9 380.9L143.7 381.5L156.5 382.8L169.3 384.1L182.1 385.3L194.9 386.8L207.8 388.4L220.6 390.8L233.4 393.6L246.2 396.5L259 399.6L271.8 402.5L284.6 405.7L297.4 408.6L310.2 411.5L323.1 413.9L335.9 415.9L348.7 417.9L361.5 419.5L374.3 421.1L387.1 422.5L399.9 423.8L412.7 424.6L425.6 425.5L438.4 426.3L451.2 427.5L464 429.2L476.8 430.8L489.6 431.7L502.4 432.5L515.2 433.8L528.1 435.2L540.9 437.4L553.7 440.5L566.5 444.2L579.3 447.7L592.1 453.6L604.9 457.7"></path><path fill="none" stroke-linecap="butt" stroke-linejoin="round" stroke="#008291" id="line__Congenital-birth-defects" stroke-width="1.5" stroke-opacity="1" d="M79.6 377.9L92.4 379L105.3 380.2L118.1 380.9L130.9 380.9L143.7 381.5L156.5 382.8L169.3 384.1L182.1 385.3L194.9 386.8L207.8 388.4L220.6 390.8L233.4 393.6L246.2 396.5L259 399.6L271.8 402.5L284.6 405.7L297.4 408.6L310.2 411.5L323.1 413.9L335.9 415.9L348.7 417.9L361.5 419.5L374.3 421.1L387.1 422.5L399.9 423.8L412.7 424.6L425.6 425.5L438.4 426.3L451.2 427.5L464 429.2L476.8 430.8L489.6 431.7L502.4 432.5L515.2 433.8L528.1 435.2L540.9 437.4L553.7 440.5L566.5 444.2L579.3 447.7L592.1 453.6L604.9 457.7"></path><path fill="none" stroke-linecap="butt" stroke-linejoin="round" stroke="#ffffff" id="outline__Cardiovascular-disease" stroke-width="2.5" d="M79.6 512.4L92.4 512.7L105.3 513.2L118.1 513.8L130.9 514.2L143.7 514.6L156.5 515.1L169.3 515.5L182.1 515.9L194.9 516.2L207.8 516.6L220.6 517L233.4 517.4L246.2 517.9L259 518.4L271.8 518.9L284.6 519.4L297.4 519.8L310.2 520.3L323.1 520.6L335.9 521L348.7 521.3L361.5 521.6L374.3 522L387.1 522.4L399.9 522.6L412.7 522.9L425.6 523L438.4 523.2L451.2 523.4L464 523.6L476.8 523.8L489.6 523.9L502.4 524L515.2 524.2L528.1 524.4L540.9 524.7L553.7 525L566.5 525.4L579.3 525.8L592.1 526.4L604.9 526.8"></path><path fill="none" stroke-linecap="butt" stroke-linejoin="round" stroke="#9a5129" id="line__Cardiovascular-disease" stroke-width="1.5" stroke-opacity="1" d="M79.6 512.4L92.4 512.7L105.3 513.2L118.1 513.8L130.9 514.2L143.7 514.6L156.5 515.1L169.3 515.5L182.1 515.9L194.9 516.2L207.8 516.6L220.6 517L233.4 517.4L246.2 517.9L259 518.4L271.8 518.9L284.6 519.4L297.4 519.8L310.2 520.3L323.1 520.6L335.9 521L348.7 521.3L361.5 521.6L374.3 522L387.1 522.4L399.9 522.6L412.7 522.9L425.6 523L438.4 523.2L451.2 523.4L464 523.6L476.8 523.8L489.6 523.9L502.4 524L515.2 524.2L528.1 524.4L540.9 524.7L553.7 525L566.5 525.4L579.3 525.8L592.1 526.4L604.9 526.8"></path><path fill="none" stroke-linecap="butt" stroke-linejoin="round" stroke="#ffffff" id="outline__Kidney-disease" stroke-width="2.5" d="M79.6 529.3L92.4 529.4L105.3 529.4L118.1 529.4L130.9 529.4L143.7 529.5L156.5 529.5L169.3 529.6L182.1 529.6L194.9 529.6L207.8 529.6L220.6 529.7L233.4 529.7L246.2 529.8L259 529.9L271.8 529.9L284.6 530L297.4 530.1L310.2 530.2L323.1 530.2L335.9 530.3L348.7 530.3L361.5 530.3L374.3 530.4L387.1 530.4L399.9 530.4L412.7 530.5L425.6 530.5L438.4 530.5L451.2 530.5L464 530.5L476.8 530.5L489.6 530.5L502.4 530.5L515.2 530.5L528.1 530.6L540.9 530.6L553.7 530.6L566.5 530.7L579.3 530.8L592.1 530.9L604.9 531"></path><path fill="none" stroke-linecap="butt" stroke-linejoin="round" stroke="#a2559c" id="line__Kidney-disease" stroke-width="1.5" stroke-opacity="1" d="M79.6 529.3L92.4 529.4L105.3 529.4L118.1 529.4L130.9 529.4L143.7 529.5L156.5 529.5L169.3 529.6L182.1 529.6L194.9 529.6L207.8 529.6L220.6 529.7L233.4 529.7L246.2 529.8L259 529.9L271.8 529.9L284.6 530L297.4 530.1L310.2 530.2L323.1 530.2L335.9 530.3L348.7 530.3L361.5 530.3L374.3 530.4L387.1 530.4L399.9 530.4L412.7 530.5L425.6 530.5L438.4 530.5L451.2 530.5L464 530.5L476.8 530.5L489.6 530.5L502.4 530.5L515.2 530.5L528.1 530.6L540.9 530.6L553.7 530.6L566.5 530.7L579.3 530.8L592.1 530.9L604.9 531"></path><path fill="none" stroke-linecap="butt" stroke-linejoin="round" stroke="#ffffff" id="outline__Digestive-diseases" stroke-width="2.5" d="M79.6 519.5L92.4 519.7L105.3 519.9L118.1 520L130.9 520.1L143.7 520.1L156.5 520.2L169.3 520.3L182.1 520.5L194.9 520.7L207.8 520.9L220.6 521.1L233.4 521.3L246.2 521.7L259 522.2L271.8 522.6L284.6 523L297.4 523.4L310.2 523.8L323.1 524.1L335.9 524.4L348.7 524.7L361.5 524.9L374.3 525.1L387.1 525.3L399.9 525.4L412.7 525.6L425.6 525.7L438.4 525.8L451.2 525.9L464 526.1L476.8 526.2L489.6 526.4L502.4 526.4L515.2 526.5L528.1 526.7L540.9 526.9L553.7 527.1L566.5 527.4L579.3 527.6L592.1 527.9L604.9 528.2"></path><path fill="none" stroke-linecap="butt" stroke-linejoin="round" stroke="#00295b" id="line__Digestive-diseases" stroke-width="1.5" stroke-opacity="1" d="M79.6 519.5L92.4 519.7L105.3 519.9L118.1 520L130.9 520.1L143.7 520.1L156.5 520.2L169.3 520.3L182.1 520.5L194.9 520.7L207.8 520.9L220.6 521.1L233.4 521.3L246.2 521.7L259 522.2L271.8 522.6L284.6 523L297.4 523.4L310.2 523.8L323.1 524.1L335.9 524.4L348.7 524.7L361.5 524.9L374.3 525.1L387.1 525.3L399.9 525.4L412.7 525.6L425.6 525.7L438.4 525.8L451.2 525.9L464 526.1L476.8 526.2L489.6 526.4L502.4 526.4L515.2 526.5L528.1 526.7L540.9 526.9L553.7 527.1L566.5 527.4L579.3 527.6L592.1 527.9L604.9 528.2"></path><path fill="none" stroke-linecap="butt" stroke-linejoin="round" stroke="#ffffff" id="outline__Measles" stroke-width="2.5" d="M79.6 414.8L92.4 415.4L105.3 416.5L118.1 418.1L130.9 419.3L143.7 421.5L156.5 423.7L169.3 426.6L182.1 429.3L194.9 432L207.8 434.8L220.6 437.6L233.4 439.7L246.2 441.4L259 442.7L271.8 443.9L284.6 445.6L297.4 447.4L310.2 449.7L323.1 453.2L335.9 457.4L348.7 461.9L361.5 468L374.3 473.2L387.1 479.4L399.9 485.6L412.7 493.9L425.6 499.1L438.4 501.9L451.2 503.6L464 503.7L476.8 503.2L489.6 505.4L502.4 508.9L515.2 511.8L528.1 513.6L540.9 516.2L553.7 516.9L566.5 518.2L579.3 518.9L592.1 522.5L604.9 524.3"></path><path fill="none" stroke-linecap="butt" stroke-linejoin="round" stroke="#883039" id="line__Measles" stroke-width="1.5" stroke-opacity="1" d="M79.6 414.8L92.4 415.4L105.3 416.5L118.1 418.1L130.9 419.3L143.7 421.5L156.5 423.7L169.3 426.6L182.1 429.3L194.9 432L207.8 434.8L220.6 437.6L233.4 439.7L246.2 441.4L259 442.7L271.8 443.9L284.6 445.6L297.4 447.4L310.2 449.7L323.1 453.2L335.9 457.4L348.7 461.9L361.5 468L374.3 473.2L387.1 479.4L399.9 485.6L412.7 493.9L425.6 499.1L438.4 501.9L451.2 503.6L464 503.7L476.8 503.2L489.6 505.4L502.4 508.9L515.2 511.8L528.1 513.6L540.9 516.2L553.7 516.9L566.5 518.2L579.3 518.9L592.1 522.5L604.9 524.3"></path><path fill="none" stroke-linecap="butt" stroke-linejoin="round" stroke="#ffffff" id="outline__Cancers" stroke-width="2.5" d="M79.6 520.7L92.4 520.8L105.3 520.9L118.1 520.9L130.9 520.9L143.7 520.8L156.5 520.7L169.3 520.6L182.1 520.5L194.9 520.5L207.8 520.5L220.6 520.6L233.4 520.7L246.2 521L259 521.3L271.8 521.7L284.6 522L297.4 522.3L310.2 522.7L323.1 523L335.9 523.3L348.7 523.7L361.5 523.9L374.3 524.2L387.1 524.4L399.9 524.6L412.7 524.7L425.6 524.8L438.4 524.8L451.2 524.9L464 525L476.8 525.1L489.6 525.1L502.4 525.1L515.2 525.1L528.1 525.2L540.9 525.2L553.7 525.3L566.5 525.5L579.3 525.7L592.1 526.3L604.9 526.6"></path><path fill="none" stroke-linecap="butt" stroke-linejoin="round" stroke="#6d3e91" id="line__Cancers" stroke-width="1.5" stroke-opacity="1" d="M79.6 520.7L92.4 520.8L105.3 520.9L118.1 520.9L130.9 520.9L143.7 520.8L156.5 520.7L169.3 520.6L182.1 520.5L194.9 520.5L207.8 520.5L220.6 520.6L233.4 520.7L246.2 521L259 521.3L271.8 521.7L284.6 522L297.4 522.3L310.2 522.7L323.1 523L335.9 523.3L348.7 523.7L361.5 523.9L374.3 524.2L387.1 524.4L399.9 524.6L412.7 524.7L425.6 524.8L438.4 524.8L451.2 524.9L464 525L476.8 525.1L489.6 525.1L502.4 525.1L515.2 525.1L528.1 525.2L540.9 525.2L553.7 525.3L566.5 525.5L579.3 525.7L592.1 526.3L604.9 526.6"></path><path fill="none" stroke-linecap="butt" stroke-linejoin="round" stroke="#ffffff" id="outline__Hepatitis" stroke-width="2.5" d="M79.6 521.5L92.4 521.8L105.3 522.1L118.1 522.4L130.9 522.6L143.7 522.9L156.5 523.2L169.3 523.4L182.1 523.7L194.9 523.9L207.8 524.1L220.6 524.2L233.4 524.3L246.2 524.4L259 524.6L271.8 524.7L284.6 524.9L297.4 525L310.2 525.1L323.1 525.2L335.9 525.1L348.7 525.2L361.5 525.3L374.3 525.5L387.1 525.7L399.9 525.8L412.7 525.9L425.6 526L438.4 526.1L451.2 526.3L464 526.5L476.8 526.7L489.6 526.9L502.4 527.2L515.2 527.6L528.1 528L540.9 528.4L553.7 528.8L566.5 529.1L579.3 529.3L592.1 529.8L604.9 530"></path><path fill="none" stroke-linecap="butt" stroke-linejoin="round" stroke="#2c8465" id="line__Hepatitis" stroke-width="1.5" stroke-opacity="1" d="M79.6 521.5L92.4 521.8L105.3 522.1L118.1 522.4L130.9 522.6L143.7 522.9L156.5 523.2L169.3 523.4L182.1 523.7L194.9 523.9L207.8 524.1L220.6 524.2L233.4 524.3L246.2 524.4L259 524.6L271.8 524.7L284.6 524.9L297.4 525L310.2 525.1L323.1 525.2L335.9 525.1L348.7 525.2L361.5 525.3L374.3 525.5L387.1 525.7L399.9 525.8L412.7 525.9L425.6 526L438.4 526.1L451.2 526.3L464 526.5L476.8 526.7L489.6 526.9L502.4 527.2L515.2 527.6L528.1 528L540.9 528.4L553.7 528.8L566.5 529.1L579.3 529.3L592.1 529.8L604.9 530"></path><path fill="none" stroke-linecap="butt" stroke-linejoin="round" stroke="#ffffff" id="outline__Nutritional-deficiencies" stroke-width="2.5" d="M79.6 430.8L92.4 431.3L105.3 435L118.1 415.3L130.9 408.3L143.7 438.3L156.5 452.2L169.3 455.4L182.1 458.5L194.9 461.7L207.8 464.4L220.6 465.9L233.4 467.6L246.2 469.5L259 471.6L271.8 462.8L284.6 467.6L297.4 469.9L310.2 472.6L323.1 475.2L335.9 477.4L348.7 480L361.5 482.5L374.3 492.7L387.1 495.3L399.9 497.2L412.7 498.8L425.6 500.4L438.4 502L451.2 503.5L464 502.7L476.8 489.8L489.6 504.3L502.4 508.6L515.2 509.8L528.1 510.9L540.9 512L553.7 513.3L566.5 514.7L579.3 516.2L592.1 518.1L604.9 519.5"></path><path fill="none" stroke-linecap="butt" stroke-linejoin="round" stroke="#996d39" id="line__Nutritional-deficiencies" stroke-width="1.5" stroke-opacity="1" d="M79.6 430.8L92.4 431.3L105.3 435L118.1 415.3L130.9 408.3L143.7 438.3L156.5 452.2L169.3 455.4L182.1 458.5L194.9 461.7L207.8 464.4L220.6 465.9L233.4 467.6L246.2 469.5L259 471.6L271.8 462.8L284.6 467.6L297.4 469.9L310.2 472.6L323.1 475.2L335.9 477.4L348.7 480L361.5 482.5L374.3 492.7L387.1 495.3L399.9 497.2L412.7 498.8L425.6 500.4L438.4 502L451.2 503.5L464 502.7L476.8 489.8L489.6 504.3L502.4 508.6L515.2 509.8L528.1 510.9L540.9 512L553.7 513.3L566.5 514.7L579.3 516.2L592.1 518.1L604.9 519.5"></path><path fill="none" stroke-linecap="butt" stroke-linejoin="round" stroke="#ffffff" id="outline__Homicide" stroke-width="2.5" d="M79.6 528.3L92.4 528.4L105.3 528.4L118.1 528.5L130.9 528.4L143.7 528.4L156.5 528.4L169.3 528.4L182.1 528.3L194.9 528.3L207.8 528.2L220.6 528.3L233.4 528.3L246.2 528.4L259 528.5L271.8 528.6L284.6 528.8L297.4 528.9L310.2 529.1L323.1 529.2L335.9 529.3L348.7 529.4L361.5 529.5L374.3 529.7L387.1 529.8L399.9 529.8L412.7 529.9L425.6 529.9L438.4 530L451.2 530L464 530L476.8 530.1L489.6 530.1L502.4 530.1L515.2 530.1L528.1 530.2L540.9 530.2L553.7 530.3L566.5 530.4L579.3 530.5L592.1 530.7L604.9 530.8"></path><path fill="none" stroke-linecap="butt" stroke-linejoin="round" stroke="#b13507" id="line__Homicide" stroke-width="1.5" stroke-opacity="1" d="M79.6 528.3L92.4 528.4L105.3 528.4L118.1 528.5L130.9 528.4L143.7 528.4L156.5 528.4L169.3 528.4L182.1 528.3L194.9 528.3L207.8 528.2L220.6 528.3L233.4 528.3L246.2 528.4L259 528.5L271.8 528.6L284.6 528.8L297.4 528.9L310.2 529.1L323.1 529.2L335.9 529.3L348.7 529.4L361.5 529.5L374.3 529.7L387.1 529.8L399.9 529.8L412.7 529.9L425.6 529.9L438.4 530L451.2 530L464 530L476.8 530.1L489.6 530.1L502.4 530.1L515.2 530.1L528.1 530.2L540.9 530.2L553.7 530.3L566.5 530.4L579.3 530.5L592.1 530.7L604.9 530.8"></path><path fill="none" stroke-linecap="butt" stroke-linejoin="round" stroke="#ffffff" id="outline__Invasive-Non-typhoidal-Salmonella-(iNTS)" stroke-width="2.5" d="M79.6 528.3L92.4 528.3L105.3 528.3L118.1 528.2L130.9 528.2L143.7 528.2L156.5 528.2L169.3 528.2L182.1 528.2L194.9 528.2L207.8 528.2L220.6 528.1L233.4 528L246.2 527.9L259 527.8L271.8 527.6L284.6 527.5L297.4 527.2L310.2 527L323.1 526.6L335.9 526.2L348.7 525.9L361.5 525.4L374.3 524.9L387.1 524.3L399.9 523.7L412.7 523.6L425.6 523.8L438.4 524L451.2 524.1L464 524.1L476.8 524.7L489.6 525.1L502.4 525.5L515.2 525.9L528.1 526.3L540.9 526.2L553.7 526.2L566.5 526.3L579.3 526.4L592.1 526.6L604.9 526.9"></path><path fill="none" stroke-linecap="butt" stroke-linejoin="round" stroke="#4c6a9c" id="line__Invasive-Non-typhoidal-Salmonella-(iNTS)" stroke-width="1.5" stroke-opacity="1" d="M79.6 528.3L92.4 528.3L105.3 528.3L118.1 528.2L130.9 528.2L143.7 528.2L156.5 528.2L169.3 528.2L182.1 528.2L194.9 528.2L207.8 528.2L220.6 528.1L233.4 528L246.2 527.9L259 527.8L271.8 527.6L284.6 527.5L297.4 527.2L310.2 527L323.1 526.6L335.9 526.2L348.7 525.9L361.5 525.4L374.3 524.9L387.1 524.3L399.9 523.7L412.7 523.6L425.6 523.8L438.4 524L451.2 524.1L464 524.1L476.8 524.7L489.6 525.1L502.4 525.5L515.2 525.9L528.1 526.3L540.9 526.2L553.7 526.2L566.5 526.3L579.3 526.4L592.1 526.6L604.9 526.9"></path></g></g><g id="footer" class="SourcesFooter" style="fill: rgb(133, 133, 133);"><g id="sources" class="markdown-text-wrap"><text x="16.0" y="581.0" style="font-size: 13px; line-height: 1.2;"><tspan x="16" y="581.0"><tspan style="font-weight: 700;">Data source:</tspan> IHME, Global Burden of Disease (2024)</tspan></text></g><text id="origin-url" font-size="13.00" x="570.5" y="581.0"><tspan x="570.49" y="581.01"><a style="fill: #858585;" href="https://ourworldindata.org/causes-of-death">OurWorldinData.org/causes-of-death</a> | <a style="fill: #858585;" href="https://creativecommons.org/licenses/by/4.0/">CC BY</a></tspan></text></g><line id="separator-line" x1="16" y1="600" x2="834" y2="600" stroke="#e7e7e7"></line><g id="details" transform="translate(15, 616)"><g class="markdown-text-wrap"><text x="0.0" y="12.0" style="font-size: 12.375px; fill: rgb(133, 133, 133); line-height: 1.2;"><tspan x="0" y="12.0"><tspan style="font-weight: 700;">1.</tspan> <tspan style="font-weight: 700;">Civil Registration and Vital Statistics system</tspan> A Civil Registration and Vital Statistics system (CRVS) is an administrative system in a country</tspan><tspan x="0" y="26.9">that manages information on births, marriages, deaths and divorces. It generates and stores ‘vital records’ and legal documents such as birth</tspan><tspan x="0" y="41.7">certificates and death certificates.</tspan><tspan x="0" y="56.6">📄 You can read more about how deaths are registered around the world in our article: <a href="https://ourworldindata.org/how-are-causes-of-death-registered-around-the-world" style="text-decoration: underline;">How are causes of death registered around the world?</a></tspan></text></g></g></svg>